<svg version="1.1" class="logo" xmlns="http://www.w3.org/2000/svg" xmlns:xlink="http://www.w3.org/1999/xlink" x="0px" y="0px" viewBox="0 0 475.1 151.3" style="enable-background:new 0 0 475.1 151.3;" xml:space="preserve">
<path class="logo__mark" fill="#40C0C0" d="M41.4,31.5h68.9V9.4H67.7C54.6,9.4,43.6,18.9,41.4,31.5 M9.5,63h22V40.9h-22V63z M41,94.5h37.8V72.4H41V94.5z M9.5,104v37.4
	c12.5-2.2,22.1-13.2,22.1-26.4v-11H9.5z M4.7,151.3H0V94.6h31.5V72.5H0v-41h31.8C34.1,13.7,49.4,0,67.7,0h52v41H40.9v22.1h47.3v41
	H40.9v11C41,135,24.7,151.3,4.7,151.3"></path>
<path class="logo__type" fill="white" d="M164.9,126.1c-5.5,0-10.3-4.2-10.3-11.6c0-7.4,4.8-11.4,10.1-11.4c4.9,0,7.4,2.8,8.5,5.7h8.6
	c-1.3-7.6-7.3-13.7-17.2-13.7c-10.6,0-18.8,8.2-18.8,19.5c0,11.2,8.2,19.6,19,19.6c9.7,0,15.8-6.3,17.4-13.7h-8.6
	C172.6,123.1,169.9,126.1,164.9,126.1z M287.4,83.6h-8.7v38.9c0,6.9,4.2,11,11,11c3.2,0,4.8-0.6,5.4-0.8v-7.3
	c-0.4,0.1-1.8,0.3-3,0.3c-3.2,0-4.7-1.4-4.7-4.6V104h7.7v-7.8h-7.7V83.6z M269.1,77.9c-3.1,0-5.7,2.6-5.7,5.7c0,3.2,2.6,5.7,5.7,5.7
	c3.2,0,5.7-2.5,5.7-5.7C274.9,80.5,272.3,77.9,269.1,77.9z M264.8,133h8.7V96.2h-8.7V133z M243.7,95.4c-5.7,0-9.9,2.6-11.7,5.8v-5
	h-8.5v51.1h8.7v-18.5c1.9,2.8,5.9,5.1,11.2,5.1c10.6,0,17.3-8.3,17.3-19.3C260.7,103.7,254.6,95.4,243.7,95.4z M242,126.1
	c-5.7,0-9.9-4.5-9.9-11.6c0-6.9,4.2-11.4,9.9-11.4c5.9,0,9.9,4.5,9.9,11.4C251.9,121.6,247.9,126.1,242,126.1z M336.3,133h8.7V83.6
	h-8.7V133z M315.5,95.1c-9.1,0-15.5,5.8-15.7,13.7h8.2c0.4-3.7,3-6.6,7.5-6.6c4.8,0,7,2.5,7,5.6c0,1.3-0.6,2.3-2.7,2.6l-9.4,1.4
	c-6.3,0.9-11.1,4.5-11.1,11.1c0,5.8,4.8,11.1,12.5,11.1c6,0,9.6-3,11.3-5.8v4.7h8.1v-24.2C331.1,101.5,326.8,95.1,315.5,95.1z
	 M322.5,117.7c0,7.2-4.2,9.5-9.1,9.5c-3.5,0-5.4-2.3-5.4-4.8c0-3,2.2-4.5,4.9-5l9.6-1.4V117.7z M202.7,95.1
	c-9.1,0-15.5,5.8-15.7,13.7h8.2c0.4-3.7,3-6.6,7.5-6.6c4.8,0,7,2.5,7,5.6c0,1.3-0.6,2.3-2.7,2.6l-9.4,1.4
	c-6.3,0.9-11.1,4.5-11.1,11.1c0,5.8,4.8,11.1,12.5,11.1c6,0,9.6-3,11.3-5.8v4.7h8.1v-24.2C218.3,101.5,214,95.1,202.7,95.1z
	 M209.7,117.7c0,7.2-4.2,9.5-9.1,9.5c-3.5,0-5.4-2.3-5.4-4.8c0-3,2.2-4.5,4.9-5l9.6-1.4V117.7z M152.3,69.9h8.8v-29h8.6v-7.6h-8.6
	v-5c0-4.5,3.1-5.6,5.4-5.6c1.7,0,2.6,0.2,3.2,0.4v-7.5c-0.6-0.3-2.4-0.8-4.6-0.8c-7.6,0-12.8,5-12.8,13.2v5.2h-6.4v7.6h6.4V69.9z
	 M189.7,71.1c11,0,19.1-8.2,19.1-19.6c0-11.3-8.1-19.5-19.1-19.5s-19,8.2-19,19.5C170.6,62.8,178.7,71.1,189.7,71.1z M189.7,39.9
	c5.4,0,10.3,3.9,10.3,11.6s-4.8,11.7-10.3,11.7c-5.4,0-10.3-4.1-10.3-11.7C179.4,43.9,184.3,39.9,189.7,39.9z M226.8,71
	c4.3,0,8.6-1.8,10.4-5.1V70h8.3V33.2h-8.8V55c0,4.8-2.6,8.2-7.7,8.2c-5.3,0-7.4-3.9-7.4-8.4V33.2h-8.8v23.2
	C212.9,64.5,218,71,226.8,71z M274.7,48.2V70h8.8V46.7c0-8.1-4.3-14.6-13.3-14.6c-4.1,0-8.5,1.7-10.9,6v-4.9h-8.5V70h8.8V48.8
	c0-4.8,2.6-8.7,7.6-8.7C272.6,40,274.7,43.6,274.7,48.2z M305.2,70.8c5.2,0,9.1-2.6,10.8-5.7v4.8h8.4V20.6h-8.5v16.9
	c-1.1-2.3-4.4-5.3-10.8-5.3c-10.3,0-17.5,8.7-17.5,19.3C287.6,62.5,294.7,70.8,305.2,70.8z M306.3,39.9c5.7,0,9.7,4.4,9.7,11.4
	s-4,11.8-9.7,11.8c-6,0-9.9-4.7-9.9-11.7C296.3,44.4,300.5,39.9,306.3,39.9z M374.3,20.6h-8.7v38.9c0,6.9,4.2,11,11,11
	c3.2,0,4.8-0.6,5.4-0.8v-7.3c-0.4,0.1-1.8,0.3-3,0.3c-3.2,0-4.7-1.4-4.7-4.6V41h7.7v-7.8h-7.7V20.6z M391.5,14.9
	c-3.1,0-5.7,2.6-5.7,5.7c0,3.2,2.6,5.7,5.7,5.7c3.2,0,5.7-2.5,5.7-5.7C397.3,17.4,394.7,14.9,391.5,14.9z M387.2,69.9h8.7V33.1h-8.7
	V69.9z M419.1,32c-11,0-19,8.2-19,19.5s8.1,19.6,19,19.6c11,0,19.1-8.2,19.1-19.6C438.2,40.2,430.1,32,419.1,32z M419.1,63.2
	c-5.4,0-10.3-4.1-10.3-11.7s4.9-11.6,10.3-11.6c5.4,0,10.3,3.9,10.3,11.6C429.3,59.2,424.5,63.2,419.1,63.2z M461.7,32.1
	c-4.1,0-8.5,1.7-10.9,6v-4.9h-8.5V70h8.8V48.8c0-4.8,2.6-8.7,7.6-8.7c5.5,0,7.6,3.6,7.6,8.2v21.8h8.8V46.8
	C475,38.6,470.7,32.1,461.7,32.1z M344.8,32c-9.1,0-15.5,5.8-15.7,13.7h8.2l0,0c0.4-3.7,3-6.6,7.5-6.6c4.8,0,7,2.5,7,5.6
	c0,1.3-0.6,2.3-2.7,2.6l-9.4,1.4c-6.3,0.9-11.1,4.5-11.1,11.1c0,5.8,4.8,11.1,12.5,11.1c6,0,9.6-3,11.3-5.8v4.7h8.1V45.6
	C360.4,38.4,356.1,32,344.8,32z M351.8,54.7c0,7.2-4.2,9.5-9.1,9.5c-3.5,0-5.4-2.3-5.4-4.8c0-3,2.2-4.5,4.9-5l9.6-1.4V54.7z"></path>
</svg>