<svg width="58" height="89" viewBox="0 0 58 89" fill="none" xmlns="http://www.w3.org/2000/svg">
<path d="M0.698608 71.5492C0.698608 69.3362 2.39896 67.4639 4.79951 67.4639C6.18539 67.4639 7.04261 67.8467 7.85716 68.542L6.97136 69.5916C6.35693 69.0668 5.75701 68.7407 4.74234 68.7407C3.27069 68.7407 2.15618 70.017 2.15618 71.5206V71.5492C2.15618 73.1802 3.2421 74.3718 4.85669 74.3718C5.59999 74.3718 6.28567 74.1305 6.77124 73.7762V72.3008H4.59983V71.0952H8.12897V74.4144C7.34345 75.0811 6.21442 75.6486 4.81403 75.6486C2.32771 75.6486 0.698608 73.8896 0.698608 71.5773V71.5492ZM9.95775 67.6199H15.8487V68.8541H11.345V70.911H15.3487V72.1447H11.3445V74.2724H15.9064V75.5066H9.95775V67.6199ZM17.7162 67.6199H19.0023L23.2602 73.0668V67.6199H24.6465V75.5066H23.4748L19.088 69.8896V75.5066H17.7162V67.6199ZM26.4467 67.6199H32.3482V68.8541H27.8471V70.911H31.8336V72.1447H27.8471V74.2724H32.405V75.5066H26.4467V67.6199ZM34.2052 67.6199H37.7493C38.7494 67.6199 39.5349 67.9174 40.0495 68.4137C40.4638 68.8391 40.7066 69.4347 40.7066 70.1146V70.1432C40.7066 71.4336 39.9211 72.2133 38.8207 72.5394L40.9639 75.5303H39.3067L37.349 72.7803H35.6056V75.5303H34.2056L34.2052 67.6199ZM37.649 71.5162C38.6491 71.5162 39.2922 70.9923 39.2922 70.1994V70.1854C39.2922 69.3353 38.6777 68.8822 37.649 68.8822H35.6205V71.5303L37.649 71.5162ZM45.0362 67.5632H46.3363L49.8373 75.5163H48.3657L47.5652 73.6167H43.8074L42.9928 75.5163H41.5643L45.0362 67.5632ZM47.0365 72.3715L45.6652 69.2088L44.3074 72.3715H47.0365ZM51.0521 67.6199H52.4376V74.2443H56.6247V75.5066H51.0521V67.6199Z" fill="white"/>
<path d="M0.75293 84.6974C0.75293 82.487 2.41481 80.6685 4.79506 80.6685C6.24568 80.6685 7.11891 81.1722 7.86548 81.8857L6.97793 82.8927C6.34458 82.3192 5.68218 81.9273 4.78118 81.9273C3.28805 81.9273 2.18924 83.1446 2.18924 84.6696V84.6974C2.18924 86.2224 3.27374 87.4535 4.78118 87.4535C5.73857 87.4535 6.35847 87.076 7.03432 86.4465L7.92187 87.3413C7.10503 88.1805 6.2036 88.7263 4.73866 88.7263C2.45689 88.7263 0.75293 86.9637 0.75293 84.7251V84.6974ZM12.013 80.7526H13.2953L16.7483 88.601H15.2969L14.5073 86.7261H10.801L9.99759 88.601H8.58862L12.013 80.7526ZM13.972 85.495L12.619 82.3751L11.2803 85.495H13.972ZM18.566 82.0812H16.0859V80.8085H22.4419V82.0812H19.9615V88.601H18.5664L18.566 82.0812ZM25.2464 80.7521H26.5287L29.9818 88.601H28.5299L27.7412 86.7257H24.0349L23.2315 88.6006H21.822L25.2464 80.7521ZM27.2194 85.495L25.8663 82.3751L24.5276 85.495H27.2194ZM31.1795 80.8085H32.5464V87.3413H36.6757V88.6006H31.1795V80.8085ZM38.6647 85.5232L35.6888 80.8085H37.3251L39.3696 84.25L41.4427 80.808H43.0217L40.0463 85.495V88.601H38.6647V85.5232ZM44.3557 86.4743C45.1452 87.118 45.9624 87.4817 46.9771 87.4817C47.8794 87.4817 48.5275 87.076 48.5275 86.502V86.4743C48.5275 85.9151 48.1188 85.6073 46.5828 85.2713C44.8211 84.8656 43.8203 84.3896 43.8203 82.963V82.9348C43.8203 81.6057 45.0042 80.6823 46.653 80.6823C47.8651 80.6823 48.8233 81.0322 49.6688 81.662L48.8797 82.6968C48.1327 82.1792 47.3857 81.8992 46.6248 81.8992C45.7651 81.8992 45.1734 82.3053 45.1734 82.8225V82.8507C45.1734 83.4524 45.6523 83.7324 47.2591 84.0818C49.0203 84.4876 49.9087 85.0615 49.9087 86.3486V86.3763C49.9087 87.8316 48.6824 88.699 46.9489 88.699C45.6805 88.699 44.4827 88.2932 43.482 87.4535L44.3557 86.4743ZM53.2767 82.0812H50.7824V80.8085H57.1527V82.0812H54.6583V88.601H53.2771L53.2767 82.0812Z" fill="white"/>
<g clip-path="url(#clip0_672_2323)">
<g clip-path="url(#clip1_672_2323)">
<path d="M-172.701 26.7657C-172.701 20.4064 -167.815 15.0259 -160.916 15.0259C-156.934 15.0259 -154.47 16.126 -152.13 18.1241L-154.675 21.1402C-156.441 19.6321 -158.165 18.695 -161.08 18.695C-165.309 18.695 -168.512 22.3628 -168.512 26.6836V26.7657C-168.512 31.4528 -165.392 34.8769 -160.752 34.8769C-158.616 34.8769 -156.645 34.1835 -155.25 33.1655V28.9255H-161.49V25.461H-151.348V34.9994C-153.606 36.9154 -156.85 38.546 -160.874 38.546C-168.019 38.546 -172.701 33.4913 -172.701 26.8465V26.7657ZM-146.093 15.4743H-129.164V19.0208H-142.107V24.9318H-130.601V28.4771H-142.108V34.5914H-128.999V38.138H-146.093V15.4743ZM-123.798 15.4743H-120.102L-107.866 31.1269V15.4743H-103.882V38.138H-107.25L-119.856 21.9965V38.138H-123.798V15.4743ZM-98.7093 15.4743H-81.7503V19.0208H-94.6851V24.9318H-83.229V28.4771H-94.6851V34.5914H-81.5872V38.138H-98.7093V15.4743ZM-76.4141 15.4743H-66.2295C-63.3554 15.4743 -61.0981 16.3293 -59.6193 17.7553C-58.4287 18.9779 -57.7311 20.6893 -57.7311 22.6432V22.7253C-57.7311 26.4335 -59.9884 28.6741 -63.1507 29.6113L-56.9917 38.2062H-61.7541L-67.3797 30.3035H-72.3898V38.2062H-76.4128L-76.4141 15.4743ZM-66.5177 26.671C-63.6436 26.671 -61.7958 25.1655 -61.7958 22.887V22.8465C-61.7958 20.4038 -63.5614 19.1017 -66.5177 19.1017H-72.3468V26.7114L-66.5177 26.671ZM-45.2892 15.3113H-41.5531L-31.4924 38.1658H-35.7214L-38.0217 32.707H-48.8205L-51.1613 38.1658H-55.2664L-45.2892 15.3113ZM-39.541 29.1288L-43.4818 20.0401L-47.3835 29.1288H-39.541ZM-28.0015 15.4743H-24.0202V34.5106H-11.9879V38.138H-28.0015V15.4743ZM67.4232 26.887C67.4232 20.4468 72.2652 15.1484 79.2003 15.1484C83.4268 15.1484 85.971 16.616 88.1462 18.695L85.5602 21.629C83.715 19.958 81.785 18.8162 79.1599 18.8162C74.8095 18.8162 71.608 22.3628 71.608 26.8061V26.887C71.608 31.3303 74.7678 34.9173 79.1599 34.9173C81.9493 34.9173 83.7554 33.8172 85.7246 31.9833L88.3105 34.5902C85.9306 37.0354 83.3042 38.6255 79.036 38.6255C72.3878 38.6255 67.4232 33.4901 67.4232 26.9678V26.887ZM100.23 15.3934H103.966L114.027 38.2605H109.798L107.498 32.7979H96.699L94.3583 38.2605H90.2531L100.23 15.3934ZM105.938 29.2109L101.996 20.1209L98.0956 29.2109H105.938ZM119.323 19.2646H112.097V15.5564H130.616V19.2646H123.389V38.2605H119.324L119.323 19.2646ZM138.787 15.3922H142.523L152.584 38.2605H148.354L146.056 32.7967H135.257L132.916 38.2593H128.81L138.787 15.3922ZM144.535 29.2109L140.593 20.1209L136.693 29.2109H144.535ZM156.073 15.5564H160.056V34.5902H172.087V38.2593H156.073V15.5564ZM177.882 29.293L169.212 15.5564H173.979L179.936 25.5835L185.976 15.5551H190.577L181.908 29.2109V38.2605H177.882V29.293ZM194.463 32.0641C196.764 33.9397 199.145 34.9994 202.101 34.9994C204.73 34.9994 206.618 33.8172 206.618 32.1449V32.0641C206.618 30.4348 205.428 29.5381 200.952 28.5592C195.819 27.377 192.904 25.9902 192.904 21.8336V21.7515C192.904 17.8791 196.353 15.1888 201.157 15.1888C204.688 15.1888 207.48 16.2081 209.944 18.0433L207.645 21.0581C205.468 19.55 203.292 18.7341 201.075 18.7341C198.57 18.7341 196.846 19.9176 196.846 21.4244V21.5065C196.846 23.2596 198.241 24.0755 202.923 25.0935C208.054 26.2757 210.642 27.9479 210.642 31.6978V31.7787C210.642 36.0187 207.069 38.546 202.019 38.546C198.323 38.546 194.834 37.3638 191.918 34.9173L194.463 32.0641ZM220.455 19.2646H213.188V15.5564H231.748V19.2646H224.481V38.2605H220.457L220.455 19.2646Z" fill="white"/>
<path d="M28.0495 1.75195C13.4135 1.75195 1.47974 14.0096 1.47974 29.0409C1.47974 44.0722 13.4135 56.3299 28.0495 56.3299C42.6855 56.3299 54.6193 44.0722 54.6193 29.0409C54.6193 28.1707 54.5789 27.3017 54.498 26.4315H28.0495C26.6377 26.4315 25.5091 27.591 25.5091 29.0409C25.5091 30.4896 26.6377 31.6491 28.0495 31.6491H49.3779L49.297 32.1884C47.8056 42.9544 38.6537 51.0706 28.0495 51.0706C16.1954 51.0706 6.60108 41.1735 6.60108 29.0409C6.60108 16.9083 16.2358 7.0112 28.0495 7.0112C36.1941 7.0112 43.7333 11.8562 47.3215 19.351H52.8852C48.9747 8.79206 39.0961 1.75195 28.0495 1.75195Z" fill="white"/>
<path d="M28.3648 13.5476C20.0521 13.5476 13.2839 20.1659 13.2839 28.2985C13.2839 36.4299 20.0521 43.0494 28.3648 43.0494C32.8353 43.0494 36.972 41.1687 39.8537 37.8596H28.3648C22.9756 37.8596 18.5481 33.5691 18.5481 28.2985C18.5481 23.0279 22.9338 18.7374 28.3231 18.7374H39.812C36.9708 15.4283 32.8353 13.5476 28.3648 13.5476Z" fill="white"/>
</g>
</g>
<defs>
<clipPath id="clip0_672_2323">
<rect width="54.7081" height="56.662" fill="white" transform="translate(1.19287 0.826416)"/>
</clipPath>
<clipPath id="clip1_672_2323">
<rect width="404.449" height="55.5732" fill="white" transform="translate(-172.701 1.75122)"/>
</clipPath>
</defs>
</svg>
