<svg width="233" height="117" viewBox="0 0 233 117" fill="none" xmlns="http://www.w3.org/2000/svg">
<g clip-path="url(#clip0)">
<path d="M71.6432 0H62.0288L0 116.149H9.61446L66.9911 8.98221L71.6432 0Z" fill="#A4ACEF"/>
<path d="M80.6381 0L18.6094 116.149H28.2238L90.2526 0H80.6381Z" fill="#8590EA"/>
<path d="M159.725 102.521L155.073 92.9194L192.911 21.9909H202.525L159.725 102.521Z" fill="#8590EA"/>
<path d="M150.11 85.4862L172.13 43.9822H162.826L145.768 75.5748L150.11 85.4862Z" fill="#A4ACEF"/>
<path d="M92.4219 21.9903L98.0045 14.8665L152.28 116.149H142.665L92.4219 21.9903Z" fill="#8590EA"/>
<path d="M88.7016 31.9016L83.7393 40.5741L124.058 116.149H133.672L88.7016 31.9016Z" fill="#A4ACEF"/>
<path d="M46.8322 116.149H37.2178L99.2466 0H108.861L165.927 107.167L223.304 0H232.919L170.89 116.149H161.275L104.209 8.98221L46.8322 116.149Z" fill="#6774E5"/>
</g>
<defs>
<clipPath id="clip0">
<rect width="232.918" height="116.459" fill="white"/>
</clipPath>
</defs>
</svg>