<svg width="142" height="90" viewBox="0 0 142 90" fill="none" xmlns="http://www.w3.org/2000/svg">
<path d="M68.1256 15.5785C67.9794 15.5785 67.855 15.5273 67.7526 15.4249C67.6502 15.3225 67.599 15.1982 67.599 15.0519V0.767955C67.599 0.60705 67.6429 0.4754 67.7307 0.373006C67.8331 0.270612 67.9647 0.219415 68.1256 0.219415H73.8085C75.6077 0.219415 77.012 0.636305 78.0213 1.47009C79.0452 2.30386 79.5572 3.48871 79.5572 5.02462C79.5572 6.09244 79.3012 6.99205 78.7892 7.72343C78.2773 8.44019 77.5605 8.95947 76.639 9.28128L79.8205 14.8764C79.8644 14.9641 79.8863 15.0446 79.8863 15.1177C79.8863 15.2494 79.8351 15.3591 79.7327 15.4469C79.645 15.5346 79.5426 15.5785 79.4255 15.5785H77.4069C77.1729 15.5785 76.99 15.5273 76.8584 15.4249C76.7267 15.3079 76.6097 15.1616 76.5073 14.9861L73.6988 9.78594H70.6928V15.0519C70.6928 15.1982 70.6416 15.3225 70.5392 15.4249C70.4368 15.5273 70.3052 15.5785 70.1443 15.5785H68.1256ZM73.7427 7.2846C74.6203 7.2846 75.2786 7.09444 75.7174 6.71412C76.1562 6.31917 76.3757 5.74869 76.3757 5.00268C76.3757 4.25666 76.1562 3.68618 75.7174 3.29124C75.2786 2.88166 74.6203 2.67687 73.7427 2.67687H70.6928V7.2846H73.7427Z" fill="#170E18"/>
<path d="M88.2652 15.7979C86.2612 15.7979 84.7034 15.2933 83.5917 14.284C82.48 13.2746 81.8949 11.7753 81.8364 9.78594C81.8217 9.36174 81.8144 8.74006 81.8144 7.92091C81.8144 7.08713 81.8217 6.45813 81.8364 6.03393C81.8949 4.08845 82.4946 2.59642 83.6356 1.55785C84.7765 0.519283 86.3198 0 88.2652 0C90.1961 0 91.732 0.519283 92.873 1.55785C94.0286 2.59642 94.6356 4.08845 94.6941 6.03393C94.7234 6.88234 94.738 7.51133 94.738 7.92091C94.738 8.31585 94.7234 8.93753 94.6941 9.78594C94.6356 11.7753 94.0432 13.2746 92.9169 14.284C91.8051 15.2933 90.2546 15.7979 88.2652 15.7979ZM88.2652 13.2527C89.2453 13.2527 90.0206 12.9602 90.5911 12.375C91.1615 11.7899 91.4687 10.8903 91.5126 9.67623C91.5419 8.79857 91.5565 8.20615 91.5565 7.89896C91.5565 7.56253 91.5419 6.9701 91.5126 6.1217C91.4687 4.92222 91.1542 4.02993 90.5691 3.44483C89.984 2.84509 89.216 2.54522 88.2652 2.54522C87.2998 2.54522 86.5245 2.84509 85.9394 3.44483C85.3543 4.02993 85.0471 4.92222 85.0179 6.1217C85.0033 6.5459 84.996 7.13832 84.996 7.89896C84.996 8.64498 85.0033 9.2374 85.0179 9.67623C85.0471 10.8757 85.347 11.7753 85.9175 12.375C86.5026 12.9602 87.2852 13.2527 88.2652 13.2527Z" fill="#170E18"/>
<path d="M103.741 15.7979C101.752 15.7979 100.208 15.2933 99.1112 14.284C98.0142 13.2746 97.4656 11.7461 97.4656 9.69817V0.767955C97.4656 0.60705 97.5095 0.4754 97.5973 0.373006C97.6997 0.270612 97.8313 0.219415 97.9922 0.219415H100.011C100.172 0.219415 100.303 0.270612 100.406 0.373006C100.508 0.4754 100.559 0.60705 100.559 0.767955V9.69817C100.559 10.8538 100.83 11.7241 101.371 12.3092C101.927 12.8943 102.71 13.1869 103.719 13.1869C104.728 13.1869 105.504 12.8943 106.045 12.3092C106.601 11.7241 106.879 10.8538 106.879 9.69817V0.767955C106.879 0.60705 106.93 0.4754 107.032 0.373006C107.135 0.270612 107.266 0.219415 107.427 0.219415H109.446C109.607 0.219415 109.731 0.270612 109.819 0.373006C109.921 0.4754 109.972 0.60705 109.972 0.767955V9.69817C109.972 11.7461 109.424 13.2746 108.327 14.284C107.244 15.2933 105.716 15.7979 103.741 15.7979Z" fill="#170E18"/>
<path d="M119.251 15.7979C117.232 15.7979 115.66 15.2786 114.533 14.2401C113.422 13.2015 112.829 11.7534 112.756 9.89565C112.741 9.47144 112.734 8.79125 112.734 7.85508C112.734 6.91891 112.741 6.23872 112.756 5.81452C112.814 4.00068 113.414 2.58179 114.555 1.55785C115.696 0.519283 117.261 0 119.251 0C120.596 0 121.752 0.234043 122.717 0.70213C123.698 1.15559 124.436 1.72607 124.934 2.41357C125.431 3.08645 125.694 3.75201 125.723 4.41026C125.723 4.5419 125.68 4.65161 125.592 4.73938C125.504 4.82714 125.387 4.87103 125.241 4.87103H122.937C122.791 4.87103 122.681 4.84177 122.608 4.78326C122.535 4.72475 122.469 4.62967 122.41 4.49802C122.205 3.9568 121.847 3.49602 121.335 3.1157C120.823 2.73538 120.128 2.54522 119.251 2.54522C118.227 2.54522 117.422 2.82315 116.837 3.379C116.267 3.92023 115.967 4.76863 115.938 5.92422C115.923 6.34843 115.916 6.99205 115.916 7.85508C115.916 8.70349 115.923 9.34711 115.938 9.78594C115.967 10.9708 116.274 11.8484 116.859 12.4189C117.444 12.9748 118.249 13.2527 119.273 13.2527C120.311 13.2527 121.145 12.9748 121.774 12.4189C122.403 11.8631 122.717 11.0293 122.717 9.91759V9.2374H120.041C119.894 9.2374 119.77 9.1862 119.668 9.08381C119.565 8.98142 119.514 8.85708 119.514 8.7108V7.50402C119.514 7.35774 119.565 7.2334 119.668 7.13101C119.77 7.02862 119.894 6.97742 120.041 6.97742H125.307C125.467 6.97742 125.599 7.02862 125.702 7.13101C125.804 7.2334 125.855 7.35774 125.855 7.50402V9.82982C125.855 11.0439 125.584 12.1044 125.043 13.0113C124.502 13.9036 123.734 14.5911 122.739 15.0739C121.745 15.5566 120.582 15.7979 119.251 15.7979Z" fill="#170E18"/>
<path d="M129.172 15.5785C129.026 15.5785 128.901 15.5273 128.799 15.4249C128.697 15.3225 128.645 15.1982 128.645 15.0519V0.767955C128.645 0.60705 128.689 0.4754 128.777 0.373006C128.879 0.270612 129.011 0.219415 129.172 0.219415H131.191C131.352 0.219415 131.483 0.270612 131.586 0.373006C131.688 0.4754 131.739 0.60705 131.739 0.767955V6.40694H138.146V0.767955C138.146 0.60705 138.197 0.4754 138.3 0.373006C138.402 0.270612 138.526 0.219415 138.673 0.219415H140.713C140.874 0.219415 140.999 0.270612 141.086 0.373006C141.189 0.4754 141.24 0.60705 141.24 0.767955V15.0519C141.24 15.1982 141.189 15.3225 141.086 15.4249C140.999 15.5273 140.874 15.5785 140.713 15.5785H138.673C138.526 15.5785 138.402 15.5273 138.3 15.4249C138.197 15.3225 138.146 15.1982 138.146 15.0519V9.19352H131.739V15.0519C131.739 15.1982 131.688 15.3225 131.586 15.4249C131.483 15.5273 131.352 15.5785 131.191 15.5785H129.172Z" fill="#170E18"/>
<path d="M68.1256 39.6795C67.9794 39.6795 67.855 39.6283 67.7526 39.526C67.6502 39.4236 67.599 39.2992 67.599 39.1529V24.869C67.599 24.7081 67.6429 24.5764 67.7307 24.474C67.8331 24.3716 67.9647 24.3204 68.1256 24.3204H73.4794C77.7945 24.3204 79.996 26.3098 80.0838 30.2886C80.113 31.137 80.1277 31.7074 80.1277 32C80.1277 32.2779 80.113 32.8411 80.0838 33.6895C80.0253 35.7374 79.4694 37.2513 78.4162 38.2314C77.3777 39.1968 75.7686 39.6795 73.5891 39.6795H68.1256ZM73.4794 37.1343C74.6935 37.1343 75.5711 36.8637 76.1124 36.3225C76.6536 35.7813 76.9388 34.8817 76.9681 33.6237C76.9973 32.746 77.012 32.1975 77.012 31.9781C77.012 31.744 76.9973 31.2028 76.9681 30.3544C76.9388 29.1549 76.639 28.2772 76.0685 27.7214C75.498 27.1509 74.5984 26.8657 73.3697 26.8657H70.6928V37.1343H73.4794Z" fill="#170E18"/>
<path d="M83.5533 39.6795C83.407 39.6795 83.2827 39.6283 83.1803 39.526C83.0779 39.4236 83.0267 39.2992 83.0267 39.1529V24.869C83.0267 24.7081 83.0706 24.5764 83.1583 24.474C83.2607 24.3716 83.3924 24.3204 83.5533 24.3204H89.2362C91.0354 24.3204 92.4396 24.7373 93.4489 25.5711C94.4729 26.4049 94.9848 27.5897 94.9848 29.1257C94.9848 30.1935 94.7289 31.0931 94.2169 31.8245C93.7049 32.5412 92.9882 33.0605 92.0666 33.3823L95.2481 38.9774C95.292 39.0652 95.314 39.1456 95.314 39.2188C95.314 39.3504 95.2628 39.4601 95.1604 39.5479C95.0726 39.6357 94.9702 39.6795 94.8532 39.6795H92.8346C92.6005 39.6795 92.4177 39.6283 92.286 39.526C92.1544 39.4089 92.0374 39.2627 91.935 39.0871L89.1264 33.887H86.1205V39.1529C86.1205 39.2992 86.0693 39.4236 85.9669 39.526C85.8645 39.6283 85.7328 39.6795 85.5719 39.6795H83.5533ZM89.1703 31.3856C90.048 31.3856 90.7062 31.1955 91.1451 30.8152C91.5839 30.4202 91.8033 29.8497 91.8033 29.1037C91.8033 28.3577 91.5839 27.7872 91.1451 27.3923C90.7062 26.9827 90.048 26.7779 89.1703 26.7779H86.1205V31.3856H89.1703Z" fill="#170E18"/>
<path d="M96.8681 39.6795C96.7364 39.6795 96.6267 39.6357 96.5389 39.5479C96.4512 39.4601 96.4073 39.3504 96.4073 39.2188L96.4512 39.0213L101.717 24.869C101.863 24.5033 102.127 24.3204 102.507 24.3204H104.921C105.301 24.3204 105.564 24.5033 105.711 24.869L110.976 39.0213L111.02 39.2188C111.02 39.3504 110.969 39.4601 110.867 39.5479C110.779 39.6357 110.677 39.6795 110.56 39.6795H108.607C108.3 39.6795 108.088 39.5406 107.97 39.2627L106.961 36.6077H100.466L99.4572 39.2627C99.3401 39.5406 99.128 39.6795 98.8209 39.6795H96.8681ZM101.234 34.0625H106.193L103.714 27.3045L101.234 34.0625Z" fill="#170E18"/>
<path d="M113.573 39.6795C113.427 39.6795 113.302 39.6283 113.2 39.526C113.098 39.4236 113.046 39.2992 113.046 39.1529V24.869C113.046 24.7081 113.09 24.5764 113.178 24.474C113.28 24.3716 113.412 24.3204 113.573 24.3204H123.118C123.278 24.3204 123.41 24.3716 123.512 24.474C123.615 24.5764 123.666 24.7081 123.666 24.869V26.4488C123.666 26.5951 123.615 26.7194 123.512 26.8218C123.41 26.9242 123.278 26.9754 123.118 26.9754H116.096V31.1004H122.679C122.84 31.1004 122.971 31.1516 123.074 31.254C123.176 31.3564 123.227 31.4807 123.227 31.627V33.2068C123.227 33.3531 123.176 33.4774 123.074 33.5798C122.971 33.6822 122.84 33.7334 122.679 33.7334H116.096V39.1529C116.096 39.2992 116.045 39.4236 115.943 39.526C115.84 39.6283 115.709 39.6795 115.548 39.6795H113.573Z" fill="#170E18"/>
<path d="M130.151 39.6795C130.005 39.6795 129.881 39.6283 129.778 39.526C129.676 39.4236 129.625 39.2992 129.625 39.1529V27.0631H125.565C125.419 27.0631 125.295 27.0119 125.192 26.9096C125.09 26.8072 125.039 26.6755 125.039 26.5146V24.869C125.039 24.7081 125.083 24.5764 125.17 24.474C125.273 24.3716 125.404 24.3204 125.565 24.3204H136.778C136.938 24.3204 137.07 24.3716 137.172 24.474C137.275 24.5764 137.326 24.7081 137.326 24.869V26.5146C137.326 26.6755 137.275 26.8072 137.172 26.9096C137.07 27.0119 136.938 27.0631 136.778 27.0631H132.74V39.1529C132.74 39.2992 132.689 39.4236 132.587 39.526C132.499 39.6283 132.375 39.6795 132.214 39.6795H130.151Z" fill="#170E18"/>
<path d="M72.0751 63.7806C71.6363 63.7806 71.351 63.5758 71.2194 63.1662L66.5239 49.0797C66.5093 49.0358 66.502 48.97 66.502 48.8823C66.502 48.7506 66.5458 48.6409 66.6336 48.5531C66.7214 48.4654 66.8311 48.4215 66.9627 48.4215H68.9155C69.1057 48.4215 69.2593 48.4727 69.3763 48.5751C69.4933 48.6775 69.5738 48.7872 69.6177 48.9042L73.2819 60.1383L76.9681 48.9042C76.9973 48.7872 77.0705 48.6775 77.1875 48.5751C77.3045 48.4727 77.4581 48.4215 77.6483 48.4215H79.623C79.74 48.4215 79.8424 48.4654 79.9302 48.5531C80.0326 48.6409 80.0838 48.7506 80.0838 48.8823L80.0399 49.0797L75.3663 63.1662C75.2201 63.5758 74.9348 63.7806 74.5106 63.7806H72.0751Z" fill="#170E18"/>
<path d="M87.8581 64C85.8395 64 84.2743 63.488 83.1626 62.4641C82.0656 61.4255 81.4804 59.9554 81.4073 58.0538C81.3927 57.6589 81.3854 57.0153 81.3854 56.123C81.3854 55.2161 81.3927 54.5578 81.4073 54.1482C81.4804 52.2759 82.0729 50.8204 83.1846 49.7819C84.2963 48.7287 85.8541 48.2021 87.8581 48.2021C89.16 48.2021 90.2936 48.4288 91.2591 48.8823C92.2245 49.3211 92.9705 49.9281 93.4971 50.7034C94.0383 51.4787 94.3236 52.349 94.3528 53.3145V53.3583C94.3528 53.4754 94.3016 53.5778 94.1992 53.6655C94.1115 53.7387 94.0091 53.7752 93.8921 53.7752H91.7637C91.5882 53.7752 91.4565 53.7387 91.3688 53.6655C91.281 53.5778 91.2079 53.4315 91.1494 53.2267C90.9299 52.3198 90.5496 51.6835 90.0084 51.3178C89.4672 50.9375 88.7504 50.7473 87.8581 50.7473C85.7664 50.7473 84.6766 51.9175 84.5888 54.2579C84.5742 54.6529 84.5669 55.2599 84.5669 56.0791C84.5669 56.8982 84.5742 57.5199 84.5888 57.9441C84.6766 60.2846 85.7664 61.4548 87.8581 61.4548C88.7358 61.4548 89.4452 61.2719 89.9865 60.9062C90.5423 60.5259 90.9299 59.8823 91.1494 58.9754C91.2079 58.7706 91.281 58.6316 91.3688 58.5585C91.4565 58.4707 91.5882 58.4268 91.7637 58.4268H93.8921C94.0237 58.4268 94.1334 58.4707 94.2212 58.5585C94.3236 58.6463 94.3675 58.756 94.3528 58.8876C94.3236 59.853 94.0383 60.7234 93.4971 61.4987C92.9705 62.2739 92.2245 62.8883 91.2591 63.3418C90.2936 63.7806 89.16 64 87.8581 64Z" fill="#170E18"/>
<path d="M46.459 53.9802C46.459 53.9802 46.4636 53.9182 46.4819 53.8191C46.4682 53.559 46.459 53.2906 46.459 53.0098C46.459 53.6333 46.459 53.9802 46.459 53.9802Z" fill="#0063FB"/>
<g clip-path="url(#clip0)">
<g clip-path="url(#clip1)">
<path d="M24.6504 53.9805C24.6504 53.9805 24.6558 53.9187 24.6746 53.8192C24.6611 53.5583 24.6504 53.2894 24.6504 53.0098C24.6504 53.6363 24.6504 53.9805 24.6504 53.9805Z" fill="#0063FB"/>
<path d="M37.7113 41.5624L38.1845 42.0975C45.8215 38.6393 51.1378 30.9566 51.1378 22.0262C51.1378 9.86353 41.277 0 29.1116 0H1L37.7059 41.5597C36.8992 41.9281 37.0793 42.1997 37.7113 41.5624Z" fill="#6D2077"/>
<path d="M49.8759 55.3255L38.1837 42.1006C35.4167 43.3537 32.3458 44.0582 29.1108 44.0582H26.1044H10.7121H10.2012C9.62307 44.0609 8.64425 44.0851 7.55248 44.1873C7.53097 44.19 7.50677 44.19 7.48526 44.1927C7.43685 44.1981 7.39114 44.2034 7.34273 44.2061C7.29164 44.2115 7.24324 44.2169 7.19215 44.2223C7.16794 44.225 7.14105 44.2276 7.11416 44.2303C7.04156 44.2384 6.96895 44.2465 6.89635 44.2545C6.88828 44.2545 6.88021 44.2572 6.87215 44.2572C6.78341 44.268 6.69467 44.2787 6.60593 44.2922C6.60055 44.2922 6.59786 44.2949 6.59248 44.2949C6.50105 44.3083 6.40694 44.3191 6.31551 44.3352C6.30744 44.3352 6.29937 44.3379 6.28862 44.3379C6.19988 44.3513 6.11114 44.3648 6.0224 44.3782C5.99551 44.3836 5.96862 44.3863 5.94441 44.3917C5.8745 44.4024 5.80458 44.4159 5.73467 44.4266C5.67013 44.4374 5.60559 44.4508 5.54105 44.4643C5.51147 44.4697 5.4792 44.475 5.44962 44.4831C4.67786 44.6391 3.94105 44.8488 3.32794 45.1366C1.52088 45.9809 1.10408 47.7073 1.02072 48.2263C1.01534 48.3177 1.01265 48.4118 1.02072 48.506C1.17937 50.3668 1.53702 51.0929 4.01366 53.8841C6.4903 56.6754 9.60425 60.2626 11.0832 61.7954C12.5622 63.3281 15.3158 64.0004 17.4671 64.0004H45.0812C50.2308 64.0004 52.8984 59.2004 49.8759 55.3255Z" fill="#FFCD41"/>
<path d="M6.89801 44.2539C6.89034 44.2539 6.88267 44.2565 6.875 44.2565C6.88011 44.2565 6.89034 44.2539 6.89801 44.2539Z" fill="#FF6475"/>
<path d="M7.48627 44.1895C7.43787 44.1948 7.39215 44.2002 7.34375 44.2029C7.38946 44.2002 7.43787 44.1948 7.48627 44.1895Z" fill="#FF6475"/>
<path d="M7.19322 44.2197C7.16902 44.2224 7.14212 44.2251 7.11523 44.2278C7.14212 44.2251 7.16902 44.2224 7.19322 44.2197Z" fill="#FF6475"/>
<path d="M3.32945 45.1329C3.94256 44.8452 4.68205 44.6355 5.45113 44.4795C4.67399 44.6355 3.92911 44.8479 3.31062 45.1356C1.79936 45.8429 1.25886 47.1632 1.07331 47.8812C1.04373 47.9941 1.0276 48.1071 1.01953 48.22C1.10558 47.7064 1.52239 45.9773 3.32945 45.1329Z" fill="#FF6475"/>
<path d="M7.55273 44.1838C8.6445 44.0816 9.62063 44.0601 10.2015 44.0547H10.0025C9.41626 44.0628 8.53156 44.0923 7.55273 44.1838Z" fill="#FF6475"/>
<path d="M6.60593 44.292C6.60106 44.292 6.59862 44.292 6.59375 44.2944C6.59862 44.292 6.60106 44.292 6.60593 44.292Z" fill="#FF6475"/>
<path d="M5.73854 44.4258C5.674 44.4365 5.60946 44.45 5.54492 44.4634C5.60946 44.45 5.674 44.4392 5.73854 44.4258Z" fill="#FF6475"/>
<path d="M6.31268 44.332C6.30501 44.332 6.29734 44.3346 6.28711 44.3346C6.29734 44.3346 6.30501 44.332 6.31268 44.332Z" fill="#FF6475"/>
<path d="M6.0233 44.3779C5.9964 44.3833 5.96951 44.386 5.94531 44.3914C5.9722 44.386 5.99909 44.3806 6.0233 44.3779Z" fill="#FF6475"/>
<path d="M1 0V7.67731V44.0578V47.438C1 47.7123 1.00807 47.9677 1.02151 48.2259C1.02958 48.1129 1.04571 47.9973 1.07529 47.8871C1.26084 47.1718 1.80134 45.8487 3.31261 45.1415C3.93109 44.8511 4.67597 44.6413 5.45311 44.4854C5.48269 44.48 5.51496 44.4746 5.54454 44.4666C5.60908 44.4531 5.67361 44.4424 5.73815 44.4289C5.80807 44.4155 5.87798 44.4047 5.9479 44.3939C5.97479 44.3886 6.00168 44.3859 6.02588 44.3805C6.11462 44.3671 6.20336 44.3536 6.2921 44.3402C6.30017 44.3402 6.30824 44.3375 6.31899 44.3375C6.41311 44.324 6.50454 44.3106 6.59597 44.2971C6.60135 44.2971 6.60403 44.2945 6.60941 44.2945C6.69815 44.2837 6.78689 44.2702 6.87563 44.2595C6.8837 44.2595 6.89177 44.2568 6.89983 44.2568C6.97244 44.2487 7.04504 44.2407 7.11765 44.2326C7.14185 44.2299 7.16874 44.2272 7.19563 44.2245C7.24672 44.2192 7.29513 44.2138 7.34622 44.2084C7.39462 44.203 7.44303 44.1976 7.48874 44.195C7.51025 44.1923 7.53445 44.1896 7.55597 44.1896C8.53479 44.0981 9.4195 44.0686 10.0057 44.0605H10.2047C10.4629 44.0578 10.643 44.0605 10.7156 44.0605H26.1079H29.1143C32.3492 44.0605 35.4202 43.356 38.1872 42.1029L1 0ZM26.1106 44.0148C26.2289 44.0148 26.3445 44.0094 26.4602 44.0067C26.4548 44.0094 26.4467 44.0121 26.4387 44.0148C26.3338 44.0175 26.2235 44.0148 26.1106 44.0148Z" fill="#FF6475"/>
</g>
</g>
<path d="M3.61894 87.1104C2.82694 87.1104 2.22194 86.8318 1.80394 86.2744V86.7474C1.80394 86.8208 1.77827 86.8831 1.72694 86.9344C1.68294 86.9784 1.62427 87.0004 1.55094 87.0004H1.08894C1.0156 87.0004 0.953271 86.9784 0.901937 86.9344C0.857937 86.8831 0.835938 86.8208 0.835938 86.7474V79.4434C0.835938 79.3628 0.857937 79.3004 0.901937 79.2564C0.953271 79.2124 1.0156 79.1904 1.08894 79.1904H1.58394C1.65727 79.1904 1.71594 79.2161 1.75994 79.2674C1.81127 79.3114 1.83694 79.3701 1.83694 79.4434V81.9844C2.2476 81.4418 2.8416 81.1704 3.61894 81.1704C4.38894 81.1704 4.9646 81.4234 5.34594 81.9294C5.7346 82.4281 5.93994 83.0551 5.96194 83.8104C5.96927 83.8911 5.97294 84.0011 5.97294 84.1404C5.97294 84.2798 5.96927 84.3898 5.96194 84.4704C5.93994 85.2258 5.7346 85.8564 5.34594 86.3624C4.9646 86.8611 4.38894 87.1104 3.61894 87.1104ZM3.40994 86.2524C3.93794 86.2524 4.32294 86.0874 4.56494 85.7574C4.80694 85.4274 4.93894 84.9948 4.96094 84.4594C4.96827 84.3861 4.97194 84.2798 4.97194 84.1404C4.97194 82.7324 4.45127 82.0284 3.40994 82.0284C2.91127 82.0284 2.52627 82.1934 2.25494 82.5234C1.99094 82.8461 1.8516 83.2311 1.83694 83.6784C1.8296 83.7591 1.82594 83.9021 1.82594 84.1074C1.82594 84.3054 1.8296 84.4448 1.83694 84.5254C1.8516 84.9948 1.98727 85.4018 2.24394 85.7464C2.50794 86.0838 2.8966 86.2524 3.40994 86.2524Z" fill="#777777"/>
<path d="M9.05019 87.1104C8.69085 87.1104 8.35719 87.0371 8.04919 86.8904C7.74852 86.7438 7.50652 86.5458 7.32319 86.2964C7.14719 86.0398 7.05919 85.7574 7.05919 85.4494C7.05919 84.9654 7.25719 84.5694 7.65319 84.2614C8.04919 83.9534 8.58819 83.7481 9.27019 83.6454L10.9202 83.4144V83.0954C10.9202 82.3401 10.4839 81.9624 9.61119 81.9624C9.27385 81.9624 9.00252 82.0321 8.79719 82.1714C8.59185 82.3034 8.44152 82.4611 8.34619 82.6444C8.31685 82.7178 8.28385 82.7691 8.24719 82.7984C8.21785 82.8204 8.17385 82.8314 8.11519 82.8314H7.68619C7.62019 82.8314 7.56152 82.8094 7.51019 82.7654C7.46619 82.7141 7.44419 82.6554 7.44419 82.5894C7.44419 82.4208 7.52119 82.2264 7.67519 82.0064C7.83652 81.7791 8.08219 81.5848 8.41219 81.4234C8.74219 81.2548 9.14552 81.1704 9.62219 81.1704C10.4435 81.1704 11.0302 81.3611 11.3822 81.7424C11.7415 82.1238 11.9212 82.6004 11.9212 83.1724V86.7474C11.9212 86.8208 11.8955 86.8831 11.8442 86.9344C11.8002 86.9784 11.7415 87.0004 11.6682 87.0004H11.1842C11.1109 87.0004 11.0522 86.9784 11.0082 86.9344C10.9642 86.8831 10.9422 86.8208 10.9422 86.7474V86.2634C10.7809 86.5054 10.5462 86.7071 10.2382 86.8684C9.93019 87.0298 9.53419 87.1104 9.05019 87.1104ZM9.27019 86.3074C9.75419 86.3074 10.1502 86.1498 10.4582 85.8344C10.7662 85.5191 10.9202 85.0608 10.9202 84.4594V84.1514L9.63319 84.3384C9.10519 84.4118 8.70552 84.5364 8.43419 84.7124C8.16285 84.8884 8.02719 85.1084 8.02719 85.3724C8.02719 85.6731 8.14819 85.9041 8.39019 86.0654C8.63952 86.2268 8.93285 86.3074 9.27019 86.3074Z" fill="#777777"/>
<path d="M15.912 87.1104C15.1274 87.1104 14.515 86.8904 14.075 86.4504C13.635 86.0031 13.404 85.3798 13.382 84.5804L13.371 84.1404L13.382 83.7004C13.404 82.9011 13.635 82.2814 14.075 81.8414C14.515 81.3941 15.1274 81.1704 15.912 81.1704C16.44 81.1704 16.8837 81.2658 17.243 81.4564C17.6097 81.6398 17.881 81.8708 18.057 82.1494C18.2404 82.4281 18.3394 82.7068 18.354 82.9854C18.3614 83.0514 18.3357 83.1101 18.277 83.1614C18.2257 83.2128 18.167 83.2384 18.101 83.2384H17.617C17.5437 83.2384 17.4887 83.2238 17.452 83.1944C17.4154 83.1578 17.3787 83.0954 17.342 83.0074C17.21 82.6481 17.0267 82.3951 16.792 82.2484C16.5647 82.0944 16.275 82.0174 15.923 82.0174C15.461 82.0174 15.0944 82.1604 14.823 82.4464C14.5517 82.7324 14.405 83.1688 14.383 83.7554L14.372 84.1404L14.383 84.5254C14.405 85.1121 14.5517 85.5484 14.823 85.8344C15.0944 86.1204 15.461 86.2634 15.923 86.2634C16.2824 86.2634 16.5757 86.1901 16.803 86.0434C17.0304 85.8894 17.21 85.6328 17.342 85.2734C17.3787 85.1854 17.4154 85.1268 17.452 85.0974C17.4887 85.0608 17.5437 85.0424 17.617 85.0424H18.101C18.167 85.0424 18.2257 85.0681 18.277 85.1194C18.3357 85.1708 18.3614 85.2294 18.354 85.2954C18.3394 85.5668 18.2404 85.8418 18.057 86.1204C17.881 86.3991 17.6097 86.6338 17.243 86.8244C16.8837 87.0151 16.44 87.1104 15.912 87.1104Z" fill="#777777"/>
<path d="M20.0459 87.0004C19.9726 87.0004 19.9102 86.9784 19.8589 86.9344C19.8149 86.8831 19.7929 86.8208 19.7929 86.7474V79.4434C19.7929 79.3628 19.8149 79.3004 19.8589 79.2564C19.9102 79.2124 19.9726 79.1904 20.0459 79.1904H20.5189C20.5922 79.1904 20.6509 79.2161 20.6949 79.2674C20.7462 79.3114 20.7719 79.3701 20.7719 79.4434V83.2824L22.9719 81.4674C23.0819 81.3868 23.1589 81.3354 23.2029 81.3134C23.2469 81.2914 23.3166 81.2804 23.4119 81.2804H23.9619C24.0279 81.2804 24.0792 81.3024 24.1159 81.3464C24.1599 81.3831 24.1819 81.4381 24.1819 81.5114C24.1819 81.5774 24.1416 81.6471 24.0609 81.7204L21.4869 83.8324L24.3359 86.5604C24.4166 86.6411 24.4569 86.7108 24.4569 86.7694C24.4569 86.8354 24.4349 86.8904 24.3909 86.9344C24.3542 86.9784 24.3029 87.0004 24.2369 87.0004H23.6979C23.5879 87.0004 23.5072 86.9894 23.4559 86.9674C23.4119 86.9454 23.3459 86.8941 23.2579 86.8134L20.7719 84.4594V86.7474C20.7719 86.8208 20.7462 86.8831 20.6949 86.9344C20.6509 86.9784 20.5922 87.0004 20.5189 87.0004H20.0459Z" fill="#777777"/>
<path d="M27.529 87.1104C26.781 87.1104 26.1833 86.8794 25.736 86.4174C25.2887 85.9481 25.043 85.3101 24.999 84.5034L24.988 84.1294L24.999 83.7664C25.043 82.9744 25.2887 82.3438 25.736 81.8744C26.1833 81.4051 26.781 81.1704 27.529 81.1704C28.3357 81.1704 28.959 81.4271 29.399 81.9404C29.8463 82.4538 30.07 83.1504 30.07 84.0304V84.2284C30.07 84.3018 30.0443 84.3641 29.993 84.4154C29.949 84.4594 29.8903 84.4814 29.817 84.4814H26V84.5804C26.022 85.0571 26.1687 85.4641 26.44 85.8014C26.7113 86.1388 27.0707 86.3074 27.518 86.3074C27.8627 86.3074 28.1413 86.2414 28.354 86.1094C28.574 85.9701 28.739 85.8271 28.849 85.6804C28.915 85.5924 28.9663 85.5411 29.003 85.5264C29.0397 85.5044 29.102 85.4934 29.19 85.4934H29.674C29.74 85.4934 29.795 85.5118 29.839 85.5484C29.8903 85.5851 29.916 85.6328 29.916 85.6914C29.916 85.8528 29.817 86.0471 29.619 86.2744C29.421 86.5018 29.1387 86.6998 28.772 86.8684C28.4127 87.0298 27.9983 87.1104 27.529 87.1104ZM29.069 83.7334V83.7004C29.069 83.1871 28.9297 82.7691 28.651 82.4464C28.3723 82.1238 27.9983 81.9624 27.529 81.9624C27.0523 81.9624 26.6783 82.1238 26.407 82.4464C26.1357 82.7691 26 83.1871 26 83.7004V83.7334H29.069Z" fill="#777777"/>
<path d="M33.6075 87.1104C32.8375 87.1104 32.2582 86.8611 31.8695 86.3624C31.4882 85.8638 31.2828 85.2331 31.2535 84.4704L31.2425 84.1404L31.2535 83.8104C31.2828 83.0551 31.4918 82.4281 31.8805 81.9294C32.2692 81.4234 32.8448 81.1704 33.6075 81.1704C34.3702 81.1704 34.9642 81.4418 35.3895 81.9844V79.4434C35.3895 79.3701 35.4115 79.3114 35.4555 79.2674C35.5069 79.2161 35.5692 79.1904 35.6425 79.1904H36.1375C36.2108 79.1904 36.2695 79.2161 36.3135 79.2674C36.3649 79.3114 36.3905 79.3701 36.3905 79.4434V86.7474C36.3905 86.8208 36.3649 86.8831 36.3135 86.9344C36.2695 86.9784 36.2108 87.0004 36.1375 87.0004H35.6645C35.5912 87.0004 35.5325 86.9784 35.4885 86.9344C35.4445 86.8831 35.4225 86.8208 35.4225 86.7474V86.2744C35.0045 86.8318 34.3995 87.1104 33.6075 87.1104ZM33.8165 86.2524C34.3298 86.2524 34.7148 86.0838 34.9715 85.7464C35.2282 85.4018 35.3675 84.9948 35.3895 84.5254C35.3968 84.4448 35.4005 84.3054 35.4005 84.1074C35.4005 83.9021 35.3968 83.7591 35.3895 83.6784C35.3748 83.2311 35.2318 82.8461 34.9605 82.5234C34.6965 82.1934 34.3152 82.0284 33.8165 82.0284C33.2885 82.0284 32.9035 82.1934 32.6615 82.5234C32.4195 82.8534 32.2875 83.2861 32.2655 83.8214L32.2545 84.1404C32.2545 85.5484 32.7752 86.2524 33.8165 86.2524Z" fill="#777777"/>
<path d="M43.7698 87.1104C42.9778 87.1104 42.3728 86.8318 41.9548 86.2744V86.7474C41.9548 86.8208 41.9291 86.8831 41.8778 86.9344C41.8338 86.9784 41.7751 87.0004 41.7018 87.0004H41.2398C41.1665 87.0004 41.1041 86.9784 41.0528 86.9344C41.0088 86.8831 40.9868 86.8208 40.9868 86.7474V79.4434C40.9868 79.3628 41.0088 79.3004 41.0528 79.2564C41.1041 79.2124 41.1665 79.1904 41.2398 79.1904H41.7348C41.8081 79.1904 41.8668 79.2161 41.9108 79.2674C41.9621 79.3114 41.9878 79.3701 41.9878 79.4434V81.9844C42.3985 81.4418 42.9925 81.1704 43.7698 81.1704C44.5398 81.1704 45.1155 81.4234 45.4968 81.9294C45.8855 82.4281 46.0908 83.0551 46.1128 83.8104C46.1201 83.8911 46.1238 84.0011 46.1238 84.1404C46.1238 84.2798 46.1201 84.3898 46.1128 84.4704C46.0908 85.2258 45.8855 85.8564 45.4968 86.3624C45.1155 86.8611 44.5398 87.1104 43.7698 87.1104ZM43.5608 86.2524C44.0888 86.2524 44.4738 86.0874 44.7158 85.7574C44.9578 85.4274 45.0898 84.9948 45.1118 84.4594C45.1191 84.3861 45.1228 84.2798 45.1228 84.1404C45.1228 82.7324 44.6021 82.0284 43.5608 82.0284C43.0621 82.0284 42.6771 82.1934 42.4058 82.5234C42.1418 82.8461 42.0025 83.2311 41.9878 83.6784C41.9805 83.7591 41.9768 83.9021 41.9768 84.1074C41.9768 84.3054 41.9805 84.4448 41.9878 84.5254C42.0025 84.9948 42.1381 85.4018 42.3948 85.7464C42.6588 86.0838 43.0475 86.2524 43.5608 86.2524Z" fill="#777777"/>
<path d="M48.4032 89.0904C48.3372 89.0904 48.2822 89.0684 48.2382 89.0244C48.1942 88.9804 48.1722 88.9291 48.1722 88.8704C48.1722 88.8484 48.1905 88.7824 48.2272 88.6724L49.0852 86.6594L46.9842 81.6984C46.9402 81.6104 46.9182 81.5481 46.9182 81.5114C46.9255 81.4454 46.9512 81.3904 46.9952 81.3464C47.0392 81.3024 47.0905 81.2804 47.1492 81.2804H47.6552C47.7725 81.2804 47.8605 81.3391 47.9192 81.4564L49.6132 85.5044L51.3512 81.4564C51.4099 81.3391 51.4979 81.2804 51.6152 81.2804H52.1102C52.1689 81.2804 52.2202 81.3024 52.2642 81.3464C52.3082 81.3904 52.3302 81.4418 52.3302 81.5004C52.3302 81.5518 52.3119 81.6178 52.2752 81.6984L49.1622 88.9144C49.1255 88.9731 49.0852 89.0171 49.0412 89.0464C49.0045 89.0758 48.9532 89.0904 48.8872 89.0904H48.4032Z" fill="#777777"/>
<path d="M58.9916 87.1104C58.0382 87.1104 57.2976 86.8464 56.7696 86.3184C56.2416 85.7904 55.9592 85.0754 55.9226 84.1734C55.9152 83.9534 55.9116 83.6088 55.9116 83.1394C55.9116 82.6628 55.9152 82.3181 55.9226 82.1054C55.9519 81.2108 56.2306 80.5031 56.7586 79.9824C57.2939 79.4544 58.0382 79.1904 58.9916 79.1904C59.6369 79.1904 60.1832 79.3078 60.6306 79.5424C61.0779 79.7771 61.4152 80.0594 61.6426 80.3894C61.8699 80.7121 61.9909 81.0128 62.0056 81.2914V81.3134C62.0056 81.3721 61.9799 81.4234 61.9286 81.4674C61.8846 81.5041 61.8332 81.5224 61.7746 81.5224H61.1586C61.0926 81.5224 61.0412 81.5078 61.0046 81.4784C60.9752 81.4491 60.9459 81.3941 60.9166 81.3134C60.7992 80.9688 60.5829 80.6791 60.2676 80.4444C59.9522 80.2098 59.5269 80.0924 58.9916 80.0924C58.3756 80.0924 57.8916 80.2611 57.5396 80.5984C57.1876 80.9358 57.0006 81.4564 56.9786 82.1604C56.9712 82.3731 56.9676 82.6994 56.9676 83.1394C56.9676 83.5721 56.9712 83.8984 56.9786 84.1184C57.0006 84.8298 57.1876 85.3541 57.5396 85.6914C57.8916 86.0288 58.3756 86.1974 58.9916 86.1974C59.6149 86.1974 60.1136 86.0288 60.4876 85.6914C60.8616 85.3468 61.0486 84.8334 61.0486 84.1514V83.6784H59.3656C59.2922 83.6784 59.2299 83.6528 59.1786 83.6014C59.1346 83.5501 59.1126 83.4878 59.1126 83.4144V83.0844C59.1126 83.0111 59.1346 82.9488 59.1786 82.8974C59.2299 82.8461 59.2922 82.8204 59.3656 82.8204H61.8296C61.9102 82.8204 61.9726 82.8461 62.0166 82.8974C62.0679 82.9414 62.0936 83.0038 62.0936 83.0844V84.1294C62.0936 84.7234 61.9689 85.2478 61.7196 85.7024C61.4776 86.1498 61.1219 86.4981 60.6526 86.7474C60.1832 86.9894 59.6296 87.1104 58.9916 87.1104Z" fill="#777777"/>
<path d="M65.9074 87.1104C65.1594 87.1104 64.5617 86.8794 64.1144 86.4174C63.667 85.9481 63.4214 85.3101 63.3774 84.5034L63.3664 84.1294L63.3774 83.7664C63.4214 82.9744 63.667 82.3438 64.1144 81.8744C64.5617 81.4051 65.1594 81.1704 65.9074 81.1704C66.7141 81.1704 67.3374 81.4271 67.7774 81.9404C68.2247 82.4538 68.4484 83.1504 68.4484 84.0304V84.2284C68.4484 84.3018 68.4227 84.3641 68.3714 84.4154C68.3274 84.4594 68.2687 84.4814 68.1954 84.4814H64.3784V84.5804C64.4004 85.0571 64.5471 85.4641 64.8184 85.8014C65.0897 86.1388 65.4491 86.3074 65.8964 86.3074C66.2411 86.3074 66.5197 86.2414 66.7324 86.1094C66.9524 85.9701 67.1174 85.8271 67.2274 85.6804C67.2934 85.5924 67.3447 85.5411 67.3814 85.5264C67.4181 85.5044 67.4804 85.4934 67.5684 85.4934H68.0524C68.1184 85.4934 68.1734 85.5118 68.2174 85.5484C68.2687 85.5851 68.2944 85.6328 68.2944 85.6914C68.2944 85.8528 68.1954 86.0471 67.9974 86.2744C67.7994 86.5018 67.5171 86.6998 67.1504 86.8684C66.791 87.0298 66.3767 87.1104 65.9074 87.1104ZM67.4474 83.7334V83.7004C67.4474 83.1871 67.308 82.7691 67.0294 82.4464C66.7507 82.1238 66.3767 81.9624 65.9074 81.9624C65.4307 81.9624 65.0567 82.1238 64.7854 82.4464C64.5141 82.7691 64.3784 83.1871 64.3784 83.7004V83.7334H67.4474Z" fill="#777777"/>
<path d="M70.1489 87.0004C70.0756 87.0004 70.0132 86.9784 69.9619 86.9344C69.9179 86.8831 69.8959 86.8208 69.8959 86.7474V81.5334C69.8959 81.4601 69.9179 81.4014 69.9619 81.3574C70.0132 81.3061 70.0756 81.2804 70.1489 81.2804H70.6219C70.7026 81.2804 70.7649 81.3024 70.8089 81.3464C70.8529 81.3904 70.8749 81.4528 70.8749 81.5334V82.0174C71.0949 81.7461 71.3479 81.5371 71.6339 81.3904C71.9273 81.2438 72.2903 81.1704 72.7229 81.1704C73.4269 81.1704 73.9733 81.3978 74.3619 81.8524C74.7506 82.2998 74.9449 82.8938 74.9449 83.6344V86.7474C74.9449 86.8208 74.9192 86.8831 74.8679 86.9344C74.8239 86.9784 74.7653 87.0004 74.6919 87.0004H74.1859C74.1126 87.0004 74.0502 86.9784 73.9989 86.9344C73.9549 86.8831 73.9329 86.8208 73.9329 86.7474V83.7004C73.9329 83.1724 73.8046 82.7618 73.5479 82.4684C73.2912 82.1751 72.9246 82.0284 72.4479 82.0284C71.9786 82.0284 71.6046 82.1788 71.3259 82.4794C71.0472 82.7728 70.9079 83.1798 70.9079 83.7004V86.7474C70.9079 86.8208 70.8822 86.8831 70.8309 86.9344C70.7869 86.9784 70.7282 87.0004 70.6549 87.0004H70.1489Z" fill="#777777"/>
<path d="M78.9106 87.1104C78.1626 87.1104 77.5649 86.8794 77.1176 86.4174C76.6702 85.9481 76.4246 85.3101 76.3806 84.5034L76.3696 84.1294L76.3806 83.7664C76.4246 82.9744 76.6702 82.3438 77.1176 81.8744C77.5649 81.4051 78.1626 81.1704 78.9106 81.1704C79.7173 81.1704 80.3406 81.4271 80.7806 81.9404C81.2279 82.4538 81.4516 83.1504 81.4516 84.0304V84.2284C81.4516 84.3018 81.4259 84.3641 81.3746 84.4154C81.3306 84.4594 81.2719 84.4814 81.1986 84.4814H77.3816V84.5804C77.4036 85.0571 77.5503 85.4641 77.8216 85.8014C78.0929 86.1388 78.4523 86.3074 78.8996 86.3074C79.2443 86.3074 79.5229 86.2414 79.7356 86.1094C79.9556 85.9701 80.1206 85.8271 80.2306 85.6804C80.2966 85.5924 80.3479 85.5411 80.3846 85.5264C80.4213 85.5044 80.4836 85.4934 80.5716 85.4934H81.0556C81.1216 85.4934 81.1766 85.5118 81.2206 85.5484C81.2719 85.5851 81.2976 85.6328 81.2976 85.6914C81.2976 85.8528 81.1986 86.0471 81.0006 86.2744C80.8026 86.5018 80.5203 86.6998 80.1536 86.8684C79.7943 87.0298 79.3799 87.1104 78.9106 87.1104ZM80.4506 83.7334V83.7004C80.4506 83.1871 80.3112 82.7691 80.0326 82.4464C79.7539 82.1238 79.3799 81.9624 78.9106 81.9624C78.4339 81.9624 78.0599 82.1238 77.7886 82.4464C77.5173 82.7691 77.3816 83.1871 77.3816 83.7004V83.7334H80.4506Z" fill="#777777"/>
<path d="M83.1521 87.0004C83.0788 87.0004 83.0164 86.9784 82.9651 86.9344C82.9211 86.8831 82.8991 86.8208 82.8991 86.7474V81.5444C82.8991 81.4711 82.9211 81.4088 82.9651 81.3574C83.0164 81.3061 83.0788 81.2804 83.1521 81.2804H83.6141C83.6948 81.2804 83.7571 81.3061 83.8011 81.3574C83.8524 81.4014 83.8781 81.4638 83.8781 81.5444V82.0284C84.1788 81.5298 84.6885 81.2804 85.4071 81.2804H85.8361C85.9168 81.2804 85.9791 81.3024 86.0231 81.3464C86.0671 81.3904 86.0891 81.4528 86.0891 81.5334V81.9404C86.0891 82.0138 86.0671 82.0761 86.0231 82.1274C85.9791 82.1714 85.9168 82.1934 85.8361 82.1934H85.2091C84.8058 82.1934 84.4868 82.3108 84.2521 82.5454C84.0248 82.7801 83.9111 83.0991 83.9111 83.5024V86.7474C83.9111 86.8208 83.8855 86.8831 83.8341 86.9344C83.7828 86.9784 83.7205 87.0004 83.6471 87.0004H83.1521Z" fill="#777777"/>
<path d="M88.6429 87.1104C88.2836 87.1104 87.9499 87.0371 87.6419 86.8904C87.3413 86.7438 87.0993 86.5458 86.9159 86.2964C86.7399 86.0398 86.6519 85.7574 86.6519 85.4494C86.6519 84.9654 86.8499 84.5694 87.2459 84.2614C87.6419 83.9534 88.1809 83.7481 88.8629 83.6454L90.5129 83.4144V83.0954C90.5129 82.3401 90.0766 81.9624 89.2039 81.9624C88.8666 81.9624 88.5953 82.0321 88.3899 82.1714C88.1846 82.3034 88.0343 82.4611 87.9389 82.6444C87.9096 82.7178 87.8766 82.7691 87.8399 82.7984C87.8106 82.8204 87.7666 82.8314 87.7079 82.8314H87.2789C87.2129 82.8314 87.1543 82.8094 87.1029 82.7654C87.0589 82.7141 87.0369 82.6554 87.0369 82.5894C87.0369 82.4208 87.1139 82.2264 87.2679 82.0064C87.4293 81.7791 87.6749 81.5848 88.0049 81.4234C88.3349 81.2548 88.7383 81.1704 89.2149 81.1704C90.0363 81.1704 90.6229 81.3611 90.9749 81.7424C91.3343 82.1238 91.5139 82.6004 91.5139 83.1724V86.7474C91.5139 86.8208 91.4883 86.8831 91.4369 86.9344C91.3929 86.9784 91.3343 87.0004 91.2609 87.0004H90.7769C90.7036 87.0004 90.6449 86.9784 90.6009 86.9344C90.5569 86.8831 90.5349 86.8208 90.5349 86.7474V86.2634C90.3736 86.5054 90.1389 86.7071 89.8309 86.8684C89.5229 87.0298 89.1269 87.1104 88.6429 87.1104ZM88.8629 86.3074C89.3469 86.3074 89.7429 86.1498 90.0509 85.8344C90.3589 85.5191 90.5129 85.0608 90.5129 84.4594V84.1514L89.2259 84.3384C88.6979 84.4118 88.2983 84.5364 88.0269 84.7124C87.7556 84.8884 87.6199 85.1084 87.6199 85.3724C87.6199 85.6731 87.7409 85.9041 87.9829 86.0654C88.2323 86.2268 88.5256 86.3074 88.8629 86.3074Z" fill="#777777"/>
<path d="M93.4808 87.0004C93.4074 87.0004 93.3451 86.9784 93.2938 86.9344C93.2498 86.8831 93.2278 86.8208 93.2278 86.7474V79.4434C93.2278 79.3628 93.2498 79.3004 93.2938 79.2564C93.3451 79.2124 93.4074 79.1904 93.4808 79.1904H93.9648C94.0381 79.1904 94.0968 79.2161 94.1408 79.2674C94.1921 79.3114 94.2178 79.3701 94.2178 79.4434V86.7474C94.2178 86.8208 94.1921 86.8831 94.1408 86.9344C94.0968 86.9784 94.0381 87.0004 93.9648 87.0004H93.4808Z" fill="#777777"/>
<path d="M101.69 87.1104C100.715 87.1104 99.9705 86.8464 99.4571 86.3184C98.9511 85.7831 98.6798 85.0534 98.6431 84.1294C98.6358 83.9314 98.6321 83.6088 98.6321 83.1614C98.6321 82.7068 98.6358 82.3768 98.6431 82.1714C98.6798 81.2474 98.9511 80.5214 99.4571 79.9934C99.9705 79.4581 100.715 79.1904 101.69 79.1904C102.343 79.1904 102.896 79.3078 103.351 79.5424C103.806 79.7698 104.147 80.0704 104.374 80.4444C104.609 80.8184 104.737 81.2181 104.759 81.6434C104.759 81.7094 104.733 81.7644 104.682 81.8084C104.638 81.8451 104.583 81.8634 104.517 81.8634H103.967C103.894 81.8634 103.835 81.8451 103.791 81.8084C103.747 81.7718 103.714 81.7094 103.692 81.6214C103.567 81.0568 103.34 80.6608 103.01 80.4334C102.687 80.2061 102.247 80.0924 101.69 80.0924C100.414 80.0924 99.7505 80.8038 99.6991 82.2264C99.6918 82.4244 99.6881 82.7288 99.6881 83.1394C99.6881 83.5501 99.6918 83.8618 99.6991 84.0744C99.7505 85.4898 100.414 86.1974 101.69 86.1974C102.24 86.1974 102.68 86.0838 103.01 85.8564C103.34 85.6291 103.567 85.2368 103.692 84.6794C103.714 84.5914 103.747 84.5291 103.791 84.4924C103.835 84.4558 103.894 84.4374 103.967 84.4374H104.517C104.583 84.4374 104.638 84.4594 104.682 84.5034C104.733 84.5401 104.759 84.5914 104.759 84.6574C104.737 85.0828 104.609 85.4824 104.374 85.8564C104.147 86.2304 103.806 86.5348 103.351 86.7694C102.896 86.9968 102.343 87.1104 101.69 87.1104Z" fill="#777777"/>
<path d="M107.807 87.1104C107.447 87.1104 107.114 87.0371 106.806 86.8904C106.505 86.7438 106.263 86.5458 106.08 86.2964C105.904 86.0398 105.816 85.7574 105.816 85.4494C105.816 84.9654 106.014 84.5694 106.41 84.2614C106.806 83.9534 107.345 83.7481 108.027 83.6454L109.677 83.4144V83.0954C109.677 82.3401 109.24 81.9624 108.368 81.9624C108.03 81.9624 107.759 82.0321 107.554 82.1714C107.348 82.3034 107.198 82.4611 107.103 82.6444C107.073 82.7178 107.04 82.7691 107.004 82.7984C106.974 82.8204 106.93 82.8314 106.872 82.8314H106.443C106.377 82.8314 106.318 82.8094 106.267 82.7654C106.223 82.7141 106.201 82.6554 106.201 82.5894C106.201 82.4208 106.278 82.2264 106.432 82.0064C106.593 81.7791 106.839 81.5848 107.169 81.4234C107.499 81.2548 107.902 81.1704 108.379 81.1704C109.2 81.1704 109.787 81.3611 110.139 81.7424C110.498 82.1238 110.678 82.6004 110.678 83.1724V86.7474C110.678 86.8208 110.652 86.8831 110.601 86.9344C110.557 86.9784 110.498 87.0004 110.425 87.0004H109.941C109.867 87.0004 109.809 86.9784 109.765 86.9344C109.721 86.8831 109.699 86.8208 109.699 86.7474V86.2634C109.537 86.5054 109.303 86.7071 108.995 86.8684C108.687 87.0298 108.291 87.1104 107.807 87.1104ZM108.027 86.3074C108.511 86.3074 108.907 86.1498 109.215 85.8344C109.523 85.5191 109.677 85.0608 109.677 84.4594V84.1514L108.39 84.3384C107.862 84.4118 107.462 84.5364 107.191 84.7124C106.919 84.8884 106.784 85.1084 106.784 85.3724C106.784 85.6731 106.905 85.9041 107.147 86.0654C107.396 86.2268 107.689 86.3074 108.027 86.3074Z" fill="#777777"/>
<path d="M114.527 87.0004C113.39 87.0004 112.822 86.3588 112.822 85.0754V82.1274H111.953C111.879 82.1274 111.821 82.1054 111.777 82.0614C111.733 82.0174 111.711 81.9588 111.711 81.8854V81.5334C111.711 81.4601 111.733 81.4014 111.777 81.3574C111.821 81.3061 111.879 81.2804 111.953 81.2804H112.822V79.4434C112.822 79.3701 112.844 79.3114 112.888 79.2674C112.932 79.2161 112.99 79.1904 113.064 79.1904H113.548C113.621 79.1904 113.68 79.2161 113.724 79.2674C113.775 79.3114 113.801 79.3701 113.801 79.4434V81.2804H115.165C115.238 81.2804 115.297 81.3061 115.341 81.3574C115.392 81.4014 115.418 81.4601 115.418 81.5334V81.8854C115.418 81.9588 115.392 82.0174 115.341 82.0614C115.297 82.1054 115.238 82.1274 115.165 82.1274H113.801V84.9984C113.801 85.3724 113.859 85.6548 113.977 85.8454C114.101 86.0361 114.31 86.1314 114.604 86.1314H115.275C115.348 86.1314 115.407 86.1571 115.451 86.2084C115.495 86.2524 115.517 86.3111 115.517 86.3844V86.7474C115.517 86.8208 115.495 86.8831 115.451 86.9344C115.407 86.9784 115.348 87.0004 115.275 87.0004H114.527Z" fill="#777777"/>
<path d="M118.285 87.1104C117.926 87.1104 117.592 87.0371 117.284 86.8904C116.984 86.7438 116.742 86.5458 116.558 86.2964C116.382 86.0398 116.294 85.7574 116.294 85.4494C116.294 84.9654 116.492 84.5694 116.888 84.2614C117.284 83.9534 117.823 83.7481 118.505 83.6454L120.155 83.4144V83.0954C120.155 82.3401 119.719 81.9624 118.846 81.9624C118.509 81.9624 118.238 82.0321 118.032 82.1714C117.827 82.3034 117.677 82.4611 117.581 82.6444C117.552 82.7178 117.519 82.7691 117.482 82.7984C117.453 82.8204 117.409 82.8314 117.35 82.8314H116.921C116.855 82.8314 116.797 82.8094 116.745 82.7654C116.701 82.7141 116.679 82.6554 116.679 82.5894C116.679 82.4208 116.756 82.2264 116.91 82.0064C117.072 81.7791 117.317 81.5848 117.647 81.4234C117.977 81.2548 118.381 81.1704 118.857 81.1704C119.679 81.1704 120.265 81.3611 120.617 81.7424C120.977 82.1238 121.156 82.6004 121.156 83.1724V86.7474C121.156 86.8208 121.131 86.8831 121.079 86.9344C121.035 86.9784 120.977 87.0004 120.903 87.0004H120.419C120.346 87.0004 120.287 86.9784 120.243 86.9344C120.199 86.8831 120.177 86.8208 120.177 86.7474V86.2634C120.016 86.5054 119.781 86.7071 119.473 86.8684C119.165 87.0298 118.769 87.1104 118.285 87.1104ZM118.505 86.3074C118.989 86.3074 119.385 86.1498 119.693 85.8344C120.001 85.5191 120.155 85.0608 120.155 84.4594V84.1514L118.868 84.3384C118.34 84.4118 117.941 84.5364 117.669 84.7124C117.398 84.8884 117.262 85.1084 117.262 85.3724C117.262 85.6731 117.383 85.9041 117.625 86.0654C117.875 86.2268 118.168 86.3074 118.505 86.3074Z" fill="#777777"/>
<path d="M123.123 87.0004C123.05 87.0004 122.988 86.9784 122.936 86.9344C122.892 86.8831 122.87 86.8208 122.87 86.7474V79.4434C122.87 79.3628 122.892 79.3004 122.936 79.2564C122.988 79.2124 123.05 79.1904 123.123 79.1904H123.607C123.681 79.1904 123.739 79.2161 123.783 79.2674C123.835 79.3114 123.86 79.3701 123.86 79.4434V86.7474C123.86 86.8208 123.835 86.8831 123.783 86.9344C123.739 86.9784 123.681 87.0004 123.607 87.0004H123.123Z" fill="#777777"/>
<path d="M126.624 89.0904C126.558 89.0904 126.503 89.0684 126.459 89.0244C126.415 88.9804 126.393 88.9291 126.393 88.8704C126.393 88.8484 126.411 88.7824 126.448 88.6724L127.306 86.6594L125.205 81.6984C125.161 81.6104 125.139 81.5481 125.139 81.5114C125.146 81.4454 125.172 81.3904 125.216 81.3464C125.26 81.3024 125.311 81.2804 125.37 81.2804H125.876C125.993 81.2804 126.081 81.3391 126.14 81.4564L127.834 85.5044L129.572 81.4564C129.63 81.3391 129.718 81.2804 129.836 81.2804H130.331C130.389 81.2804 130.441 81.3024 130.485 81.3464C130.529 81.3904 130.551 81.4418 130.551 81.5004C130.551 81.5518 130.532 81.6178 130.496 81.6984L127.383 88.9144C127.346 88.9731 127.306 89.0171 127.262 89.0464C127.225 89.0758 127.174 89.0904 127.108 89.0904H126.624Z" fill="#777777"/>
<path d="M133.556 87.1104C133.05 87.1104 132.621 87.0298 132.269 86.8684C131.924 86.6998 131.667 86.5091 131.499 86.2964C131.33 86.0838 131.246 85.9078 131.246 85.7684C131.246 85.6951 131.271 85.6401 131.323 85.6034C131.374 85.5594 131.429 85.5374 131.488 85.5374H131.95C131.994 85.5374 132.027 85.5448 132.049 85.5594C132.078 85.5741 132.115 85.6071 132.159 85.6584C132.327 85.8638 132.514 86.0251 132.72 86.1424C132.932 86.2598 133.215 86.3184 133.567 86.3184C133.963 86.3184 134.278 86.2451 134.513 86.0984C134.755 85.9518 134.876 85.7391 134.876 85.4604C134.876 85.2771 134.824 85.1304 134.722 85.0204C134.619 84.9104 134.447 84.8114 134.205 84.7234C133.97 84.6354 133.618 84.5401 133.149 84.4374C132.511 84.2981 132.06 84.0964 131.796 83.8324C131.532 83.5684 131.4 83.2274 131.4 82.8094C131.4 82.5381 131.48 82.2778 131.642 82.0284C131.803 81.7718 132.041 81.5664 132.357 81.4124C132.679 81.2511 133.061 81.1704 133.501 81.1704C133.963 81.1704 134.355 81.2474 134.678 81.4014C135.008 81.5554 135.253 81.7351 135.415 81.9404C135.583 82.1458 135.668 82.3181 135.668 82.4574C135.668 82.5234 135.642 82.5784 135.591 82.6224C135.547 82.6664 135.492 82.6884 135.426 82.6884H135.008C134.905 82.6884 134.832 82.6481 134.788 82.5674C134.663 82.4281 134.557 82.3218 134.469 82.2484C134.388 82.1678 134.267 82.1018 134.106 82.0504C133.944 81.9918 133.743 81.9624 133.501 81.9624C133.141 81.9624 132.866 82.0394 132.676 82.1934C132.485 82.3401 132.39 82.5381 132.39 82.7874C132.39 82.9414 132.43 83.0734 132.511 83.1834C132.591 83.2861 132.745 83.3851 132.973 83.4804C133.2 83.5684 133.537 83.6601 133.985 83.7554C134.681 83.9021 135.173 84.1111 135.459 84.3824C135.752 84.6538 135.899 85.0021 135.899 85.4274C135.899 85.7428 135.807 86.0288 135.624 86.2854C135.448 86.5421 135.18 86.7438 134.821 86.8904C134.469 87.0371 134.047 87.1104 133.556 87.1104Z" fill="#777777"/>
<path d="M139.483 87.0004C138.346 87.0004 137.778 86.3588 137.778 85.0754V82.1274H136.909C136.836 82.1274 136.777 82.1054 136.733 82.0614C136.689 82.0174 136.667 81.9588 136.667 81.8854V81.5334C136.667 81.4601 136.689 81.4014 136.733 81.3574C136.777 81.3061 136.836 81.2804 136.909 81.2804H137.778V79.4434C137.778 79.3701 137.8 79.3114 137.844 79.2674C137.888 79.2161 137.947 79.1904 138.02 79.1904H138.504C138.577 79.1904 138.636 79.2161 138.68 79.2674C138.731 79.3114 138.757 79.3701 138.757 79.4434V81.2804H140.121C140.194 81.2804 140.253 81.3061 140.297 81.3574C140.348 81.4014 140.374 81.4601 140.374 81.5334V81.8854C140.374 81.9588 140.348 82.0174 140.297 82.0614C140.253 82.1054 140.194 82.1274 140.121 82.1274H138.757V84.9984C138.757 85.3724 138.816 85.6548 138.933 85.8454C139.058 86.0361 139.267 86.1314 139.56 86.1314H140.231C140.304 86.1314 140.363 86.1571 140.407 86.2084C140.451 86.2524 140.473 86.3111 140.473 86.3844V86.7474C140.473 86.8208 140.451 86.8831 140.407 86.9344C140.363 86.9784 140.304 87.0004 140.231 87.0004H139.483Z" fill="#777777"/>
<defs>
<clipPath id="clip0">
<rect width="50.2163" height="64" fill="white" transform="translate(1)"/>
</clipPath>
<clipPath id="clip1">
<rect width="50.2158" height="64" fill="white" transform="translate(1)"/>
</clipPath>
</defs>
</svg>