<svg width="300" height="58" viewBox="0 0 300 58" fill="none" xmlns="http://www.w3.org/2000/svg">
<path fill-rule="evenodd" clip-rule="evenodd" d="M108.662 46.9252L104.133 35.5827H102.537L108.008 48.8386H109.281L114.752 35.5827H113.205L108.662 46.9252ZM130.763 35.5827H121.566V48.744H130.855V47.3908H123V42.7854H129.941V41.4322H123V36.936H130.763V35.5827ZM147.415 46.1321L139.399 35.5827H138.056V48.744H139.455V37.9472L147.668 48.744H148.815V35.5827H147.415V46.1321ZM161.521 36.9578H165.79V35.5827H155.811V36.9578H160.08V48.7513H161.514V36.9578H161.521ZM183.208 35.5827H181.774V43.2365C181.774 44.6771 181.429 45.7611 180.74 46.4886C180.051 47.2162 179.115 47.58 177.941 47.58C176.767 47.58 175.761 47.1944 175.079 46.4304C174.397 45.6665 174.052 44.5679 174.052 43.1419V35.5827H172.618V43.2365C172.618 44.1678 172.744 44.9826 172.998 45.7029C173.251 46.4159 173.609 47.0198 174.081 47.4999C174.545 47.9801 175.107 48.3439 175.754 48.5913C176.401 48.8386 177.118 48.955 177.906 48.955C178.694 48.955 179.432 48.8313 180.079 48.5913C180.726 48.3439 181.281 47.9801 181.752 47.4927C182.217 47.0052 182.582 46.3941 182.835 45.6665C183.088 44.939 183.215 44.095 183.215 43.1274V35.5827H183.208ZM201.442 48.744L197.532 43.3675C198.031 43.2802 198.489 43.1274 198.91 42.9164C199.332 42.7054 199.698 42.4362 200.007 42.1161C200.317 41.796 200.556 41.4176 200.725 40.9884C200.893 40.5591 200.978 40.0644 200.978 39.5115C200.978 38.9222 200.872 38.3838 200.647 37.9036C200.429 37.4234 200.12 37.0087 199.719 36.6595C199.318 36.3175 198.84 36.0483 198.271 35.8592C197.708 35.67 197.075 35.5754 196.372 35.5754H190.901V48.7368H192.336V43.6221H195.971L199.663 48.7368H201.428L201.442 48.744ZM199.55 39.5769C199.55 40.0062 199.466 40.3918 199.304 40.7265C199.143 41.0684 198.91 41.3522 198.622 41.585C198.334 41.8178 197.989 41.9997 197.581 42.1234C197.181 42.247 196.745 42.3125 196.266 42.3125H192.35V36.9505H196.288C197.321 36.9505 198.123 37.176 198.692 37.6417C199.262 38.1 199.55 38.7475 199.55 39.5769ZM217.566 35.5827H208.368V48.744H217.658V47.3908H209.803V42.7854H216.744V41.4322H209.803V36.936H217.566V35.5827ZM225.963 38.8567C225.963 38.5584 226.026 38.2746 226.152 38.0127C226.279 37.7508 226.462 37.518 226.701 37.3288C226.94 37.1397 227.221 36.9869 227.552 36.8777C227.882 36.7613 228.255 36.7104 228.67 36.7104C229.324 36.7104 229.95 36.8195 230.554 37.0524C231.152 37.2779 231.75 37.6417 232.348 38.1437L233.184 36.9942C232.53 36.463 231.855 36.0629 231.159 35.7937C230.463 35.5245 229.647 35.3936 228.712 35.3936C228.107 35.3936 227.552 35.4809 227.038 35.6627C226.532 35.8446 226.089 36.092 225.709 36.4194C225.337 36.7395 225.041 37.1178 224.837 37.5544C224.633 37.9909 224.528 38.4784 224.528 39.0022C224.528 39.526 224.612 40.028 224.781 40.4282C224.95 40.8356 225.217 41.1848 225.569 41.4831C225.92 41.7814 226.363 42.0433 226.905 42.2543C227.446 42.4653 228.079 42.6617 228.81 42.8218C229.478 42.9746 230.027 43.1274 230.463 43.2947C230.892 43.4548 231.229 43.6367 231.469 43.8404C231.715 44.0441 231.883 44.2623 231.982 44.5097C232.08 44.7571 232.13 45.0335 232.13 45.3464C232.13 46.023 231.869 46.5687 231.356 46.9834C230.843 47.3981 230.154 47.6018 229.296 47.6018C228.438 47.6018 227.629 47.449 226.954 47.1434C226.279 46.8379 225.604 46.3722 224.936 45.7393L224.043 46.8306C224.809 47.5436 225.611 48.0674 226.448 48.4094C227.292 48.7513 228.22 48.9186 229.239 48.9186C229.872 48.9186 230.449 48.8313 230.983 48.6567C231.518 48.4821 231.968 48.2275 232.348 47.9001C232.727 47.5727 233.023 47.1798 233.241 46.7142C233.459 46.2486 233.564 45.732 233.564 45.1718C233.564 44.1532 233.227 43.3602 232.559 42.7782C231.883 42.2034 230.843 41.745 229.422 41.4176C228.719 41.2649 228.142 41.1048 227.692 40.9375C227.242 40.7701 226.891 40.581 226.638 40.37C226.384 40.1663 226.209 39.9334 226.11 39.6788C226.012 39.4314 225.963 39.1477 225.963 38.8349V38.8567Z" fill="#DCDCDC"/>
<path fill-rule="evenodd" clip-rule="evenodd" d="M109.209 23.4059L104.547 9.33516H102.543L108.372 26.3452H109.912L114.413 12.6382L118.892 26.3452H120.453L126.283 9.33516H124.349L119.687 23.4059L115.208 9.29151H113.689L109.209 23.4059ZM137.246 9.21875H135.523L128.083 26.2288H129.975L131.909 21.7617H140.797L142.71 26.2288H144.693L137.253 9.21875H137.246ZM140.066 20.081H132.626L136.36 11.4669L140.066 20.081ZM153.926 11.1031H159.404V9.34243H146.598V11.1031H152.076V26.2361H153.919V11.0958L153.926 11.1031ZM176.646 9.34243H164.846V26.2361H176.766V24.4972H166.689V18.5823H175.598V16.8434H166.689V11.074H176.646V9.33516V9.34243ZM195.935 26.2361L190.921 19.3389C191.561 19.2298 192.152 19.0334 192.693 18.7569C193.234 18.4804 193.706 18.1385 194.106 17.731C194.5 17.3236 194.81 16.8362 195.028 16.2832C195.246 15.7303 195.351 15.0973 195.351 14.3916C195.351 13.635 195.21 12.9438 194.929 12.3254C194.648 11.707 194.254 11.1759 193.741 10.732C193.227 10.2882 192.609 9.9463 191.884 9.70621C191.16 9.46612 190.351 9.34243 189.444 9.34243H182.426V26.2361H184.269V19.6736H188.931L193.663 26.2361H195.928H195.935ZM193.509 14.4716C193.509 15.0173 193.403 15.512 193.192 15.9486C192.981 16.3851 192.693 16.7561 192.313 17.0472C191.941 17.3454 191.498 17.5783 190.977 17.7383C190.464 17.8984 189.901 17.9784 189.297 17.9784H184.269V11.0958H189.318C190.647 11.0958 191.673 11.3868 192.405 11.9834C193.136 12.5727 193.502 13.4021 193.502 14.4644L193.509 14.4716ZM208.192 9.34243H201.251V26.2361H208.494C209.373 26.2361 210.182 26.1342 210.913 25.9232C211.637 25.7122 212.263 25.4139 212.783 25.0211C213.304 24.6282 213.698 24.1407 213.979 23.5587C214.26 22.9767 214.401 22.3291 214.401 21.6016C214.401 21.0196 214.309 20.5103 214.119 20.0592C213.93 19.6081 213.683 19.2225 213.374 18.9024C213.065 18.5823 212.699 18.3058 212.27 18.073C211.841 17.8402 211.391 17.651 210.913 17.5055C211.236 17.36 211.553 17.1781 211.855 16.9598C212.158 16.7416 212.432 16.4724 212.685 16.1523C212.931 15.8321 213.128 15.4611 213.276 15.0391C213.423 14.6244 213.494 14.1297 213.494 13.5695C213.494 12.9292 213.367 12.3399 213.121 11.8234C212.875 11.3068 212.516 10.8557 212.052 10.4992C211.588 10.1355 211.025 9.85899 210.378 9.65528C209.724 9.45157 208.993 9.35698 208.192 9.35698V9.34243ZM207.91 16.8725H203.093V11.0231H208.051C209.211 11.0231 210.104 11.2704 210.723 11.7724C211.342 12.2744 211.651 12.9511 211.651 13.8096C211.651 14.8136 211.3 15.5702 210.603 16.0868C209.907 16.6033 209.007 16.8653 207.903 16.8653L207.91 16.8725ZM208.564 24.5482H203.093V18.5604H208.234C209.661 18.5604 210.737 18.8151 211.468 19.3244C212.193 19.8337 212.558 20.5539 212.558 21.4925C212.558 22.431 212.2 23.2167 211.489 23.7479C210.772 24.2862 209.802 24.5482 208.557 24.5482H208.564ZM233.556 26.2361L228.542 19.3389C229.182 19.2298 229.773 19.0334 230.314 18.7569C230.856 18.4804 231.327 18.1385 231.728 17.731C232.121 17.3236 232.431 16.8362 232.649 16.2832C232.867 15.7303 232.972 15.0973 232.972 14.3916C232.972 13.635 232.832 12.9438 232.55 12.3254C232.269 11.707 231.875 11.1759 231.362 10.732C230.849 10.2882 230.23 9.9463 229.505 9.70621C228.781 9.46612 227.972 9.34243 227.065 9.34243H220.047V26.2361H221.89V19.6736H226.552L231.285 26.2361H233.549H233.556ZM231.13 14.4716C231.13 15.0173 231.024 15.512 230.813 15.9486C230.602 16.3851 230.314 16.7561 229.934 17.0472C229.562 17.3454 229.119 17.5783 228.598 17.7383C228.085 17.8984 227.522 17.9784 226.918 17.9784H221.89V11.0958H226.939C228.268 11.0958 229.294 11.3868 230.026 11.9834C230.757 12.5727 231.123 13.4021 231.123 14.4644L231.13 14.4716ZM239.041 9.34243V26.2361H240.883V9.33516H239.041V9.34243ZM261.972 17.7674C261.972 16.5742 261.761 15.4684 261.339 14.4353C260.917 13.4021 260.327 12.5145 259.553 11.7579C258.787 11.0012 257.865 10.4119 256.804 9.98268C255.742 9.55342 254.567 9.34243 253.295 9.34243H247.627V26.2361H253.295C254.567 26.2361 255.742 26.0178 256.804 25.5813C257.865 25.1447 258.787 24.5482 259.553 23.7988C260.32 23.0421 260.917 22.1473 261.339 21.1069C261.761 20.0665 261.972 18.9533 261.972 17.7674ZM260.059 17.8184C260.059 18.7642 259.898 19.6445 259.581 20.4521C259.265 21.2596 258.815 21.9581 258.231 22.562C257.647 23.1658 256.937 23.6387 256.093 23.9734C255.257 24.3081 254.321 24.4827 253.295 24.4827H249.469V11.0958H253.295C254.321 11.0958 255.257 11.2704 256.093 11.6124C256.93 11.9616 257.647 12.4345 258.231 13.0384C258.815 13.6422 259.265 14.3552 259.581 15.1774C259.898 15.9995 260.059 16.8725 260.059 17.8111V17.8184ZM281.964 23.9588V17.2436H275.22V18.9315H280.185V23.144C279.622 23.6169 278.933 24.0098 278.111 24.3444C277.288 24.6791 276.409 24.8465 275.474 24.8465C274.475 24.8465 273.582 24.6718 272.794 24.3153C272 23.9588 271.325 23.4641 270.762 22.8384C270.2 22.2127 269.771 21.4634 269.468 20.6049C269.166 19.7463 269.011 18.8005 269.011 17.7892C269.011 16.8434 269.166 15.9413 269.475 15.0973C269.785 14.2461 270.214 13.5113 270.755 12.8856C271.297 12.2599 271.951 11.7579 272.717 11.3868C273.476 11.0158 274.313 10.8339 275.213 10.8339C275.79 10.8339 276.31 10.8848 276.789 10.9794C277.26 11.074 277.696 11.205 278.096 11.3796C278.49 11.5469 278.863 11.7506 279.208 11.9834C279.552 12.2162 279.876 12.4782 280.185 12.7692L281.373 11.3214C280.973 10.9649 280.551 10.652 280.129 10.3683C279.7 10.0845 279.243 9.85172 278.75 9.65528C278.258 9.45884 277.731 9.32061 277.161 9.21875C276.592 9.12417 275.966 9.07324 275.284 9.07324C274.053 9.07324 272.942 9.31333 271.936 9.78624C270.931 10.2591 270.073 10.8994 269.363 11.707C268.645 12.5145 268.09 13.4458 267.696 14.508C267.302 15.5702 267.098 16.6761 267.098 17.8402C267.098 19.0043 267.288 20.1829 267.668 21.2451C268.048 22.3073 268.603 23.2313 269.328 24.017C270.052 24.8028 270.924 25.4212 271.936 25.8723C272.956 26.3234 274.109 26.5489 275.403 26.5489C276.789 26.5489 278.033 26.2943 279.144 25.7923C280.255 25.2903 281.191 24.6791 281.957 23.9807L281.964 23.9588ZM299.882 9.34971H288.082V26.2433H300.001V24.5045H289.924V18.5896H298.834V16.8507H289.924V11.0813H299.882V9.34243V9.34971Z" fill="#DCDCDC"/>
<path fill-rule="evenodd" clip-rule="evenodd" d="M46.8216 30.7898V0H44.0369V30.7898C42.3774 30.8043 40.7319 30.848 39.1075 30.9135L37.6941 9.98194L35.0922 10.7022C35.0571 10.8623 35.0219 11.0223 34.9797 11.1824C33.6577 16.7045 30.9012 21.6372 27.132 25.5369C24.4177 28.3452 21.1759 30.6152 17.5826 32.1721C12.2383 34.4857 6.02201 36.5519 0.994141 39.1056C12.5196 36.3701 24.7904 35.1987 36.576 34.784L37.6378 50.5354L37.8628 53.8675L40.6405 53.6638L39.3606 34.704C40.9006 34.6676 42.4617 34.6458 44.0299 34.6385V57.9927H46.8145V34.6458C48.3827 34.653 49.9438 34.6749 51.4838 34.7112L50.204 53.6711L52.9816 53.8748L53.2066 50.5427L54.2685 34.7913C66.0541 35.1987 78.3249 36.3773 89.8503 39.1129C84.8224 36.5519 78.6061 34.493 73.2618 32.1794C69.6685 30.6224 66.4268 28.3525 63.7124 25.5442C59.9503 21.6518 57.1867 16.7117 55.8647 11.1897C55.8295 11.0296 55.7874 10.8695 55.7522 10.7095L53.1504 9.98921L51.7369 30.9207C50.1125 30.8552 48.4741 30.8116 46.8075 30.797L46.8216 30.7898ZM55.3936 18.2978C56.9969 21.7609 59.1557 24.8966 61.7505 27.5813C63.5788 29.4729 65.6181 31.1317 67.8331 32.5359C63.7968 31.8738 59.4932 31.3864 55.0068 31.0953L54.5357 31.0662L55.4006 18.3051L55.3936 18.2978ZM35.4649 18.2978L36.3299 31.059L35.8587 31.0881C31.3723 31.3791 27.0687 31.8665 23.0324 32.5286C25.2475 31.1317 27.2867 29.4656 29.115 27.574C31.7098 24.8894 33.8687 21.7536 35.472 18.2905L35.4649 18.2978Z" fill="white"/>
</svg>
